<svg width="261" height="59" viewBox="0 0 261 59" fill="none" xmlns="http://www.w3.org/2000/svg">
<path d="M17.0898 31.3994H7.95898L7.91016 26.3701H15.5762C16.9271 26.3701 18.0339 26.1992 18.8965 25.8574C19.7591 25.4993 20.402 24.9867 20.8252 24.3193C21.2646 23.6357 21.4844 22.8057 21.4844 21.8291C21.4844 20.7223 21.2728 19.8271 20.8496 19.1436C20.4427 18.46 19.7998 17.9635 18.9209 17.6543C18.0583 17.3451 16.9434 17.1904 15.5762 17.1904H10.498V47H3.17383V11.4531H15.5762C17.6432 11.4531 19.4906 11.6484 21.1182 12.0391C22.762 12.4297 24.1536 13.0238 25.293 13.8213C26.4323 14.6188 27.3031 15.6279 27.9053 16.8486C28.5075 18.0531 28.8086 19.4854 28.8086 21.1455C28.8086 22.6104 28.4749 23.9613 27.8076 25.1982C27.1566 26.4352 26.123 27.4443 24.707 28.2256C23.3073 29.0068 21.4762 29.4382 19.2139 29.5195L17.0898 31.3994ZM16.7725 47H5.95703L8.81348 41.2871H16.7725C18.0583 41.2871 19.1081 41.0837 19.9219 40.6768C20.7357 40.2536 21.3379 39.6839 21.7285 38.9678C22.1191 38.2516 22.3145 37.4297 22.3145 36.502C22.3145 35.4603 22.1354 34.557 21.7773 33.792C21.4355 33.027 20.8822 32.4411 20.1172 32.0342C19.3522 31.611 18.3431 31.3994 17.0898 31.3994H10.0342L10.083 26.3701H18.8721L20.5566 28.3477C22.7214 28.3151 24.4629 28.6976 25.7812 29.4951C27.1159 30.2764 28.0843 31.2936 28.6865 32.5469C29.305 33.8001 29.6143 35.1429 29.6143 36.5752C29.6143 38.8538 29.1178 40.7744 28.125 42.3369C27.1322 43.8831 25.6755 45.0469 23.7549 45.8281C21.8506 46.6094 19.5231 47 16.7725 47ZM49.4873 36.0869V11.4531H56.7871V36.0869C56.7871 38.4632 56.2663 40.5059 55.2246 42.2148C54.1829 43.9076 52.7588 45.2096 50.9521 46.1211C49.1618 47.0326 47.1436 47.4883 44.8975 47.4883C42.57 47.4883 40.5111 47.0977 38.7207 46.3164C36.9303 45.5352 35.5225 44.3389 34.4971 42.7275C33.4717 41.0999 32.959 39.041 32.959 36.5508H40.3076C40.3076 37.8529 40.4867 38.8864 40.8447 39.6514C41.2191 40.4163 41.748 40.9616 42.4316 41.2871C43.1152 41.6126 43.9372 41.7754 44.8975 41.7754C45.8252 41.7754 46.6309 41.5557 47.3145 41.1162C47.998 40.6768 48.527 40.0339 48.9014 39.1875C49.292 38.3411 49.4873 37.3076 49.4873 36.0869ZM77.417 36.0869V11.4531H84.7168V36.0869C84.7168 38.4632 84.196 40.5059 83.1543 42.2148C82.1126 43.9076 80.6885 45.2096 78.8818 46.1211C77.0915 47.0326 75.0732 47.4883 72.8271 47.4883C70.4997 47.4883 68.4408 47.0977 66.6504 46.3164C64.86 45.5352 63.4521 44.3389 62.4268 42.7275C61.4014 41.0999 60.8887 39.041 60.8887 36.5508H68.2373C68.2373 37.8529 68.4163 38.8864 68.7744 39.6514C69.1488 40.4163 69.6777 40.9616 70.3613 41.2871C71.0449 41.6126 71.8669 41.7754 72.8271 41.7754C73.7549 41.7754 74.5605 41.5557 75.2441 41.1162C75.9277 40.6768 76.4567 40.0339 76.8311 39.1875C77.2217 38.3411 77.417 37.3076 77.417 36.0869Z" fill="#121826"/>
<path d="M109.017 34.3291H99.959V28.6162H109.017C110.416 28.6162 111.556 28.3883 112.435 27.9326C113.313 27.4606 113.956 26.8096 114.363 25.9795C114.77 25.1494 114.974 24.2135 114.974 23.1719C114.974 22.1139 114.77 21.1292 114.363 20.2178C113.956 19.3063 113.313 18.5739 112.435 18.0205C111.556 17.4671 110.416 17.1904 109.017 17.1904H102.498V47H95.1738V11.4531H109.017C111.8 11.4531 114.184 11.9577 116.17 12.9668C118.172 13.9596 119.702 15.335 120.76 17.0928C121.818 18.8506 122.347 20.8607 122.347 23.123C122.347 25.418 121.818 27.4036 120.76 29.0801C119.702 30.7565 118.172 32.0505 116.17 32.9619C114.184 33.8734 111.8 34.3291 109.017 34.3291ZM140.926 41.043V29.2754C140.926 28.429 140.787 27.7048 140.511 27.1025C140.234 26.484 139.803 26.0039 139.217 25.6621C138.647 25.3203 137.907 25.1494 136.995 25.1494C136.214 25.1494 135.538 25.2878 134.969 25.5645C134.399 25.8249 133.96 26.2074 133.65 26.7119C133.341 27.2002 133.187 27.778 133.187 28.4453H126.155C126.155 27.3223 126.416 26.2562 126.937 25.2471C127.457 24.238 128.214 23.3509 129.207 22.5859C130.2 21.8047 131.38 21.1943 132.747 20.7549C134.131 20.3154 135.677 20.0957 137.386 20.0957C139.437 20.0957 141.259 20.4375 142.854 21.1211C144.45 21.8047 145.703 22.8301 146.614 24.1973C147.542 25.5645 148.006 27.2734 148.006 29.3242V40.6279C148.006 42.0765 148.095 43.2646 148.274 44.1924C148.453 45.1038 148.714 45.9014 149.056 46.585V47H141.951C141.609 46.2839 141.349 45.3887 141.17 44.3145C141.007 43.224 140.926 42.1335 140.926 41.043ZM141.854 30.9111L141.902 34.8906H137.972C137.044 34.8906 136.238 34.9964 135.555 35.208C134.871 35.4196 134.31 35.7207 133.87 36.1113C133.431 36.4857 133.105 36.9251 132.894 37.4297C132.698 37.9342 132.601 38.4876 132.601 39.0898C132.601 39.6921 132.739 40.2373 133.016 40.7256C133.292 41.1976 133.691 41.5719 134.212 41.8486C134.733 42.109 135.343 42.2393 136.043 42.2393C137.101 42.2393 138.021 42.0277 138.802 41.6045C139.583 41.1813 140.185 40.6605 140.608 40.042C141.048 39.4235 141.276 38.8376 141.292 38.2842L143.147 41.2627C142.887 41.93 142.529 42.6217 142.073 43.3379C141.634 44.054 141.072 44.7295 140.389 45.3643C139.705 45.9827 138.883 46.4954 137.923 46.9023C136.963 47.293 135.823 47.4883 134.505 47.4883C132.828 47.4883 131.307 47.1546 129.939 46.4873C128.589 45.8037 127.514 44.8678 126.717 43.6797C125.936 42.4753 125.545 41.1081 125.545 39.5781C125.545 38.1947 125.805 36.9658 126.326 35.8916C126.847 34.8174 127.612 33.9141 128.621 33.1816C129.646 32.4329 130.924 31.8714 132.454 31.4971C133.984 31.1064 135.758 30.9111 137.776 30.9111H141.854ZM160.457 26.3457V47H153.426V20.584H160.042L160.457 26.3457ZM168.416 20.4131L168.294 26.9316C167.952 26.8828 167.537 26.8421 167.049 26.8096C166.577 26.7607 166.146 26.7363 165.755 26.7363C164.762 26.7363 163.899 26.8665 163.167 27.127C162.451 27.3711 161.849 27.7373 161.36 28.2256C160.888 28.7139 160.53 29.3079 160.286 30.0078C160.058 30.7077 159.928 31.5052 159.896 32.4004L158.479 31.9609C158.479 30.252 158.65 28.6813 158.992 27.249C159.334 25.8005 159.83 24.5391 160.481 23.4648C161.149 22.3906 161.963 21.5605 162.923 20.9746C163.883 20.3887 164.982 20.0957 166.219 20.0957C166.609 20.0957 167.008 20.1283 167.415 20.1934C167.822 20.2422 168.156 20.3154 168.416 20.4131ZM185.896 20.584V25.5645H170.516V20.584H185.896ZM174.324 14.0654H181.355V39.041C181.355 39.806 181.453 40.3919 181.648 40.7988C181.86 41.2057 182.169 41.4906 182.576 41.6533C182.983 41.7998 183.496 41.873 184.114 41.873C184.554 41.873 184.944 41.8568 185.286 41.8242C185.644 41.7754 185.945 41.7266 186.189 41.6777L186.214 46.8535C185.612 47.0488 184.961 47.2035 184.261 47.3174C183.561 47.4313 182.788 47.4883 181.941 47.4883C180.395 47.4883 179.044 47.236 177.889 46.7314C176.749 46.2106 175.87 45.3805 175.252 44.2412C174.633 43.1019 174.324 41.6045 174.324 39.749V14.0654ZM196.785 26.2236V47H189.754V20.584H196.346L196.785 26.2236ZM195.76 32.8643H193.855C193.855 30.9111 194.108 29.1533 194.612 27.5908C195.117 26.012 195.825 24.6693 196.736 23.5625C197.648 22.4395 198.73 21.585 199.983 20.999C201.253 20.3968 202.669 20.0957 204.231 20.0957C205.468 20.0957 206.6 20.2747 207.625 20.6328C208.65 20.9909 209.529 21.5605 210.262 22.3418C211.01 23.123 211.58 24.1566 211.971 25.4424C212.378 26.7282 212.581 28.2988 212.581 30.1543V47H205.501V30.1299C205.501 28.958 205.338 28.0465 205.013 27.3955C204.687 26.7445 204.207 26.2887 203.572 26.0283C202.954 25.7516 202.189 25.6133 201.277 25.6133C200.333 25.6133 199.511 25.8005 198.812 26.1748C198.128 26.5492 197.558 27.07 197.103 27.7373C196.663 28.3883 196.329 29.1533 196.102 30.0322C195.874 30.9111 195.76 31.8551 195.76 32.8643ZM230.086 47.4883C228.035 47.4883 226.196 47.1628 224.568 46.5117C222.941 45.8444 221.557 44.9248 220.418 43.7529C219.295 42.5811 218.432 41.222 217.83 39.6758C217.228 38.1133 216.927 36.4531 216.927 34.6953V33.7188C216.927 31.7168 217.212 29.8857 217.781 28.2256C218.351 26.5654 219.165 25.125 220.223 23.9043C221.297 22.6836 222.599 21.7477 224.129 21.0967C225.659 20.4294 227.384 20.0957 229.305 20.0957C231.176 20.0957 232.837 20.4049 234.285 21.0234C235.734 21.6419 236.946 22.5208 237.923 23.6602C238.916 24.7995 239.664 26.1667 240.169 27.7617C240.674 29.3405 240.926 31.0983 240.926 33.0352V35.9648H219.93V31.2773H234.017V30.7402C234.017 29.7637 233.838 28.8929 233.479 28.1279C233.138 27.3467 232.617 26.7282 231.917 26.2725C231.217 25.8167 230.322 25.5889 229.231 25.5889C228.304 25.5889 227.506 25.7923 226.839 26.1992C226.172 26.6061 225.626 27.1758 225.203 27.9082C224.796 28.6406 224.487 29.5033 224.275 30.4961C224.08 31.4727 223.982 32.5469 223.982 33.7188V34.6953C223.982 35.7533 224.129 36.7298 224.422 37.625C224.731 38.5202 225.162 39.2933 225.716 39.9443C226.285 40.5954 226.969 41.0999 227.767 41.458C228.58 41.8161 229.5 41.9951 230.525 41.9951C231.795 41.9951 232.975 41.751 234.065 41.2627C235.172 40.7581 236.124 40.0013 236.922 38.9922L240.34 42.7031C239.786 43.5007 239.03 44.2656 238.069 44.998C237.125 45.7305 235.986 46.3327 234.651 46.8047C233.317 47.2604 231.795 47.4883 230.086 47.4883ZM251.961 26.3457V47H244.93V20.584H251.546L251.961 26.3457ZM259.92 20.4131L259.798 26.9316C259.456 26.8828 259.041 26.8421 258.553 26.8096C258.081 26.7607 257.649 26.7363 257.259 26.7363C256.266 26.7363 255.403 26.8665 254.671 27.127C253.955 27.3711 253.353 27.7373 252.864 28.2256C252.392 28.7139 252.034 29.3079 251.79 30.0078C251.562 30.7077 251.432 31.5052 251.399 32.4004L249.983 31.9609C249.983 30.252 250.154 28.6813 250.496 27.249C250.838 25.8005 251.334 24.5391 251.985 23.4648C252.653 22.3906 253.466 21.5605 254.427 20.9746C255.387 20.3887 256.486 20.0957 257.723 20.0957C258.113 20.0957 258.512 20.1283 258.919 20.1934C259.326 20.2422 259.66 20.3154 259.92 20.4131Z" fill="#C41D17"/>
</svg>
